<?xml version="1.0" encoding="utf-8"?>
<!-- Generator: Adobe Illustrator 22.0.0, SVG Export Plug-In . SVG Version: 6.00 Build 0)  -->
<svg version="1.1" xmlns="http://www.w3.org/2000/svg" xmlns:xlink="http://www.w3.org/1999/xlink" x="0px" y="0px" width="1400px"
	 height="1400px" viewBox="0 0 1400 1400" enable-background="new 0 0 1400 1400" xml:space="preserve">
<!-- <g id="BACKGROUND">
	<rect fill="#FFFDE7" width="1400" height="1400"/>
</g> -->
<g id="OBJECTS">
	<g>
		<path fill="#F9B7D8" d="M385.5,244.6c50.8-45,109-81.2,234.3-78.1c144.9,3.6,132.5,171.8,254.6,176s244.3-22.8,298.1,72.5
			s-58,231.9,10.4,300.2c68.3,68.3,111.8,157.3,49.7,248.4s-144.9,60-207,144.9s-277.4,122.1-391.3,43.5s-173.9-66.2-254.6-31.1
			s-205-8.3-242.2-86.9s70.4-161.5,20.7-279.5s21.8-213.2,95.2-248.4C384,443.4,285.4,333.5,385.5,244.6z"/>
		<g>
			<path fill="#F9A7D0" d="M1238.8,835.2c8.1,8.1,15.9,16.5,23.2,25.2c-3.1-37.7-20.3-73.7-45-106.3
				C1213.6,785.6,1217.3,813.8,1238.8,835.2z"/>
			<path fill="#F9A7D0" d="M214,874.6c-49.7-118,21.8-213.2,95.2-248.4c130.6-62.7,32-172.6,132.2-261.4
				c50.8-45,109-81.2,234.3-78.1c144.9,3.6,132.5,171.8,254.6,176c97.1,3.3,194.3-13,257,28c1.6-26.6-1.7-52.4-14.8-75.6
				c-53.8-95.2-176-68.3-298.1-72.5c-122.1-4.1-109.7-172.4-254.6-176c-125.2-3.1-183.5,33-234.3,78.1
				c-100.1,88.8-1.6,198.7-132.2,261.4c-73.5,35.3-144.9,130.4-95.2,248.4s-58,200.8-20.7,279.5c10.7,22.7,28.7,42.4,50.7,58.2
				C200.9,1030.6,250.9,962.3,214,874.6z"/>
		</g>
		<path fill="#F9A7D0" d="M1182.9,715.2c-68.3-68.3,43.5-205-10.4-300.2c-36.1-63.8-102.8-72.8-179.6-73
			c-12.6,72.7-45.4,147.1-0.5,191.9c68.3,68.3,111.8,157.3,49.7,248.4s-144.9,60-207,144.9s-277.4,122.1-391.3,43.5
			s-173.9-66.2-254.6-31.1c-15.8,6.9-33.3,10.8-51.5,11.9c-8.8,28.7-12.8,55.8-0.2,82.4c37.3,78.7,161.5,122.1,242.2,86.9
			s140.8-47.6,254.6,31.1s329.2,41.4,391.3-43.5c62.1-84.9,144.9-53.8,207-144.9S1251.2,783.5,1182.9,715.2z"/>
		<g>
			<g>
				<path fill="#58595B" d="M1031.6,509.6L985,462.9c-0.8-0.8-0.8-2.1,0-2.9l15.1-15.1c13.2-13.2,34.7-13.2,47.9,0l1.7,1.7
					c13.2,13.2,13.2,34.7,0,47.9l-15.1,15.1C1033.8,510.4,1032.4,510.4,1031.6,509.6z"/>
				<g>
					<path fill="#58595B" d="M1142.4,540.9l-109.6-109.6c-1.6-1.6-1.6-4.3,0-5.9l0,0c1.6-1.6,4.3-1.6,5.9,0l109.6,109.6
						c1.6,1.6,1.6,4.3,0,5.9l0,0C1146.7,542.5,1144,542.5,1142.4,540.9z"/>
				</g>
				<g>
					<path fill="#58595B" d="M1104.1,648.1l-7.9-2.7l41.4-123.1c0.7-2.2,3.1-3.4,5.3-2.6l0,0c2.2,0.7,3.4,3.1,2.6,5.3L1104.1,648.1z
						"/>
				</g>
				<path fill="#58595B" d="M1118.3,658h-93.8v-0.5c0-7.8,6.3-14.2,14.2-14.2h65.4c7.8,0,14.2,6.3,14.2,14.2V658z"/>
			</g>
			<g>
				<rect x="920.3" y="634.3" fill="#FFFBFF" width="102.1" height="22.1"/>
				<path fill="#FFB058" d="M1024.1,654.8H922.8c-0.5,0-0.9-0.4-0.9-0.9v-17.1c0-0.5,0.4-0.9,0.9-0.9h101.3c0.8,0,1.5-0.5,1.6-1.3
					c0.2-1.1-0.6-2-1.6-2H922.3c-2,0-3.6,1.6-3.6,3.6v18.2c0,2,1.6,3.6,3.6,3.6h101.9c1,0,1.8-0.9,1.6-2
					C1025.6,655.3,1024.9,654.8,1024.1,654.8z"/>
				<g>
					<path fill="#DDBCD2" d="M925.1,640.3h95.2c0.1,0,0.2-0.1,0.2-0.2s-0.1-0.2-0.2-0.2h-95.2c-0.1,0-0.2,0.1-0.2,0.2
						S925,640.3,925.1,640.3z"/>
					<path fill="#DDBCD2" d="M1020.3,643.4h-95.2c-0.1,0-0.2,0.1-0.2,0.2s0.1,0.2,0.2,0.2h95.2c0.1,0,0.2-0.1,0.2-0.2
						S1020.4,643.4,1020.3,643.4z"/>
					<path fill="#DDBCD2" d="M1020.3,646.9h-95.2c-0.1,0-0.2,0.1-0.2,0.2s0.1,0.2,0.2,0.2h95.2c0.1,0,0.2-0.1,0.2-0.2
						S1020.4,646.9,1020.3,646.9z"/>
					<path fill="#DDBCD2" d="M1020.3,650.4h-95.2c-0.1,0-0.2,0.1-0.2,0.2s0.1,0.2,0.2,0.2h95.2c0.1,0,0.2-0.1,0.2-0.2
						S1020.4,650.4,1020.3,650.4z"/>
				</g>
			</g>
			<g>
				<rect x="929.9" y="609.1" fill="#FFFBFF" width="102.1" height="22.1"/>
				<path fill="#BEC665" d="M1033.8,629.6H932.5c-0.5,0-0.9-0.4-0.9-0.9v-17.1c0-0.5,0.4-0.9,0.9-0.9h101.3c0.8,0,1.5-0.5,1.6-1.3
					c0.2-1.1-0.6-2-1.6-2H931.9c-2,0-3.6,1.6-3.6,3.6v18.2c0,2,1.6,3.6,3.6,3.6h101.9c1,0,1.8-0.9,1.6-2
					C1035.2,630.1,1034.5,629.6,1033.8,629.6z"/>
				<g>
					<path fill="#DDBCD2" d="M934.7,615.1h95.2c0.1,0,0.2-0.1,0.2-0.2s-0.1-0.2-0.2-0.2h-95.2c-0.1,0-0.2,0.1-0.2,0.2
						S934.6,615.1,934.7,615.1z"/>
					<path fill="#DDBCD2" d="M1029.9,618.2h-95.2c-0.1,0-0.2,0.1-0.2,0.2c0,0.1,0.1,0.2,0.2,0.2h95.2c0.1,0,0.2-0.1,0.2-0.2
						C1030.1,618.3,1030,618.2,1029.9,618.2z"/>
					<path fill="#DDBCD2" d="M1029.9,621.8h-95.2c-0.1,0-0.2,0.1-0.2,0.2c0,0.1,0.1,0.2,0.2,0.2h95.2c0.1,0,0.2-0.1,0.2-0.2
						C1030.1,621.8,1030,621.8,1029.9,621.8z"/>
					<path fill="#DDBCD2" d="M1029.9,625.3h-95.2c-0.1,0-0.2,0.1-0.2,0.2c0,0.1,0.1,0.2,0.2,0.2h95.2c0.1,0,0.2-0.1,0.2-0.2
						C1030.1,625.3,1030,625.3,1029.9,625.3z"/>
				</g>
			</g>
			<polygon fill="#F984BE" points="230.4,1045.2 466.5,1013.6 977.3,1013.6 1158.3,1051.7 684.4,1074.8 			"/>
			<g>
				<rect x="680.6" y="791.1" fill="#BCBEC0" width="30.8" height="193.8"/>
				<g>
					<rect x="676.3" y="906.8" fill="#414042" width="39.2" height="78.1"/>
					<rect x="654.2" y="969.9" fill="#414042" width="83.4" height="20.7"/>
					<path fill="#414042" d="M649.1,1008.8h-25.3c-1.3,0-2-1.5-1.1-2.5l31.5-36.4h29.2l-33.2,38.4
						C650,1008.6,649.6,1008.8,649.1,1008.8z"/>
					<path fill="#414042" d="M742.7,1008.8H768c1.3,0,2-1.5,1.1-2.5l-31.5-36.4h-29.2l33.2,38.4
						C741.9,1008.6,742.3,1008.8,742.7,1008.8z"/>
					<rect x="683.1" y="981.3" fill="#414042" width="25.6" height="29.2"/>
				</g>
			</g>
			<path fill="#414042" d="M781.5,712.3H666.1c-21.4,0-38.8-17.4-38.8-38.8V570.4c0-21.4,17.4-38.8,38.8-38.8h115.4
				c21.4,0,38.8,17.4,38.8,38.8v103.1C820.3,694.9,802.9,712.3,781.5,712.3z"/>
			<path fill="#A144D3" d="M767.8,610.8c1.5,36.1,1.5,65.3,10.8,86.1c9.2,20.8,6.9,26.1,6.9,26.1l-192.9-8.5
				c0,0,19.2-50.1,4.5-117.2c-11.2-51.2,26.2-65.7,26.2-65.7S767.6,606.4,767.8,610.8z"/>
			<g>
				<path fill="#F1F2F2" d="M722.8,477.8l-26.2-0.1l-26.2,0.1l-5.7,1.6c0.8,4,5.9,22.6,31.9,25c26-2.5,31.1-21,31.9-25L722.8,477.8z
					"/>
				<path fill="#E6E7E8" d="M724.7,478.3l-1.8-0.5l-26.1-0.1l0-0.1l-26.3,0.2l-1.8,0.5l19,18.4c2.3,2.2,6.1,1.2,6.9-1.9l2.1-7.8
					l3.5,8.5c1.1,2.8,4.8,3.5,6.9,1.3L724.7,478.3z"/>
			</g>
			<rect x="677.6" y="438.3" fill="#EEAE95" width="37.4" height="35.7"/>
			<path fill="#E29B86" d="M715.1,443.1l-14.2-4.7c0,0-21.1,1.3-21.5,1.8c-0.1,0.2-0.8,0.8-1.7,1.6v10.4
				c2.8,3.5,12.7,13.1,37.4,10.5V443.1z"/>
			<path fill="#681300" d="M670.7,293.5c0,0,14.4-9.9,48.2-5.6s57,32.6,55.4,83.5c-1.4,45.5-20.7,80.9-45.8,85.5
				c-12,2.2-14.1-5.8-14-10c0.1-4.4,9.8-7.6,2.4-7.6c-20.8-0.2-39.7,7.9-39.1,7.4c0,0-0.1,13.2-10,11.6c-10.5-1.7-43.7-17-49.8-79.9
				C611.2,307.6,650.2,289.9,670.7,293.5z"/>
			<g>
				<g>
					
						<ellipse transform="matrix(0.983 -0.1837 0.1837 0.983 -59.9004 124.5719)" fill="#EEAE95" cx="642.5" cy="385.6" rx="13.1" ry="19.2"/>
					
						<ellipse transform="matrix(0.983 -0.1837 0.1837 0.983 -59.7748 125.0137)" fill="#D88B67" cx="644.9" cy="385.2" rx="10.7" ry="15.6"/>
				</g>
				<g>
					<circle fill="#403F42" cx="640.5" cy="400.3" r="2"/>
					<circle fill="#6A6C71" cx="640.2" cy="400.3" r="1.5"/>
				</g>
			</g>
			<path fill="#EEAE95" d="M696.4,297c-67.2,0-54.6,69.3-54.6,91.8s10.3,34.2,21.1,47.7c10.8,13.5,22.5,18.9,33.4,18.9
				s22.6-5.4,33.4-18.9c10.8-13.5,21.1-25.2,21.1-47.7S763.5,297,696.4,297z"/>
			<path fill="#E2937B" d="M715.1,316.1l-32-6.2l-17.9-3.7c0,0-7.9,27-8.8,27.3c-0.9,0.3-9.8,14-9.8,14s-4,4.7-4.4,6.8
				c-0.4,2.1,0.1,6.7,0.3,8.3s1.1,8.7,1.2,9.1c0.1,0.4,0.8,5.9,0.8,6.4c0,0.5-0.3,12.8-0.3,12.8c5.2,0,4.8-2.9,4.1-16.3
				c-0.7-13.4,0.4-28.1,9-37.6s17-12.5,18.8-21.9c0,0,4.2,2.7,13.3,8.2c9.1,5.5,26.1,15.3,39.6,30.1c10.9,12,19.1,31.8,21.8,39.1
				c0.1-1.2,0.1-2.4,0.1-3.7c0-8.4,1.8-23.4,0.4-38.9l-2-7.9L715.1,316.1z"/>
			<path fill="#681300" d="M750.5,321.6c-21.3-40.9-83.7-22.9-83.7-22.9s0.3,0.4,1,1.3c-32.5,3.1-30.5,64.4-27.4,65.4
				c1.1,0.4,1.2,16.5,1.2,22.9c0,1.4,1.2,2.6,2.6,2.6l0,0c1.5,0,2.6-1.2,2.6-2.6c-0.2-14.2-2.8-40.7,9.4-53.7
				c7.9-8.4,16.7-11,18.9-23.3c5.5,6,16.1,9.3,40.9,27.6c31.9,23.5,35.9,56.3,35.9,56.3S771.8,362.5,750.5,321.6z"/>
			<path fill="#FFFFFF" d="M677.6,467.3c4.8,3.1,10.8,5,17.4,5h2.6c6.6,0,12.6-1.9,17.4-5l7.8,10.5l-16.9,17.5
				c-1.3,1.4-3.6,1-4.4-0.8l-4.9-10.9l-3.6,10.7c-0.6,1.8-2.9,2.4-4.4,1.1l-19-17.3L677.6,467.3z"/>
			<g>
				<path fill="#7A190E" d="M762.7,316.8c-19.6,5.2-42.2,8.1-66.4,8.1c-0.3,0-0.6,0-1,0c5.5,3.4,12.2,7.9,20.6,14.1
					c5.9,4.4,10.9,9.1,15.1,13.8c14.9-1.9,28.9-4.9,41.3-8.8C770.5,333.5,767.2,324.4,762.7,316.8z"/>
				<path fill="#7A190E" d="M628,316.3c-4.3,7.1-7.6,16-9.4,27.1c9.2,3,19.1,5.5,29.8,7.4c1.4-6.2,3.8-11.9,7.8-16.1
					c4.3-4.6,8.9-7.4,12.5-11.1C654.2,322.2,640.5,319.7,628,316.3z"/>
			</g>
			<path fill="#A144D3" d="M775.6,572.1l11.8,60.8l-2.8,8.8l56.8-2.5l-22.9-110.2c-7.2-17.7-22.3-31.1-40.7-36.2l-49.4-13.6
				c-0.8,4-5.6,21.7-30.1,24.8c-1.2,0.2-2.4,0.2-3.7,0c-24.5-3.1-29.3-20.9-30.1-24.8l-43.4,12c-22,6.1-39.5,22.7-46.6,44.4
				l-18.3,55.6l48.5,46.9l91.7,7.4l81.9-3.6L775.6,572.1z"/>
			<path fill="#802AB7" d="M694.5,508.4c1.4,0.2,2.8,0.2,4.3,0c26.4-3.4,33.3-21.2,34.9-27.7l-5.2-1.4c-0.8,4-5.6,21.7-30.1,24.8
				c-1.2,0.2-2.4,0.2-3.6,0c-24.5-3.1-29.3-20.9-30.1-24.8l-5.2,1.4C661.2,487.2,668.1,505.1,694.5,508.4z"/>
			<polygon opacity="0.15" fill="#231F20" points="802.5,641 772.8,553.7 767.9,642.5 778.5,642 775.6,572.1 787.4,632.9 
				784.6,641.7 			"/>
			<g>
				<g>
					<path fill="#C67040" d="M307,688.7h-12.1c-3.5,0-6.4,2.7-6.8,6.2l-36.9,351.4c-0.2,2.3,1.5,4.3,3.7,4.3h2.4h3.4
						c1.8,0,3.4-1.3,3.7-3.2l59.3-350.5c0.7-4.3-2.5-8.1-6.7-8.1H307z"/>
					<path fill="#B7613C" d="M255,1050.5h2.4h3.4c1.8,0,3.4-1.3,3.7-3.2l59.3-350.5c0.7-4.3-2.5-8.1-6.7-8.1h-3.4l-59.7,361.7
						C254.4,1050.5,254.7,1050.5,255,1050.5z"/>
				</g>
				<g>
					<path fill="#C67040" d="M364.2,688.7h-9.6c-2.8,0-5.1,2.7-5.4,6.2L320,1046.3c-0.2,2.3,1.2,4.3,3,4.3h1.9h2.7
						c1.4,0,2.7-1.3,2.9-3.2l47-350.5c0.6-4.3-2-8.1-5.3-8.1H364.2z"/>
					<path fill="#B7613C" d="M323,1050.5h1.9h2.7c1.4,0,2.7-1.3,2.9-3.2l47-350.5c0.6-4.3-2-8.1-5.3-8.1h-2.7l-47.3,361.7
						C322.4,1050.5,322.7,1050.5,323,1050.5z"/>
				</g>
				<g>
					<path fill="#C67040" d="M1084.8,688.7h12.1c3.5,0,6.4,2.7,6.8,6.2l36.9,351.4c0.2,2.3-1.5,4.3-3.7,4.3h-2.4h-3.4
						c-1.8,0-3.4-1.3-3.7-3.2L1068,696.8c-0.7-4.3,2.5-8.1,6.7-8.1H1084.8z"/>
					<path fill="#B7613C" d="M1136.8,1050.5h-2.4h-3.4c-1.8,0-3.4-1.3-3.7-3.2L1068,696.8c-0.7-4.3,2.5-8.1,6.7-8.1h3.4l59.7,361.7
						C1137.5,1050.5,1137.2,1050.5,1136.8,1050.5z"/>
				</g>
				<g>
					<path fill="#C67040" d="M1027.7,688.7h9.6c2.8,0,5.1,2.7,5.4,6.2l29.2,351.4c0.2,2.3-1.2,4.3-3,4.3h-1.9h-2.7
						c-1.4,0-2.7-1.3-2.9-3.2l-47-350.5c-0.6-4.3,2-8.1,5.3-8.1H1027.7z"/>
					<path fill="#B7613C" d="M1068.9,1050.5h-1.9h-2.7c-1.4,0-2.7-1.3-2.9-3.2l-47-350.5c-0.6-4.3,2-8.1,5.3-8.1h2.7l47.3,361.7
						C1069.4,1050.5,1069.2,1050.5,1068.9,1050.5z"/>
				</g>
			</g>
			<g>
				<g>
					<polygon fill="#D1D3D4" points="626.6,660 584.4,535.4 381.7,535.4 379,538.1 383.5,540.4 423.9,660 618.3,660 623.8,662.7 
											"/>
					<polygon fill="#FFFFFF" points="623.8,662.7 421.1,662.7 379,538.1 581.6,538.1 					"/>
				</g>
				<polygon fill="#F1F2F2" points="618.8,662.7 623.8,662.7 581.6,538.1 379,538.1 578.6,543.8 				"/>
				
					<ellipse transform="matrix(0.6787 -0.7345 0.7345 0.6787 -282.7244 561.7421)" fill="#F1F2F2" cx="500.6" cy="604" rx="14.8" ry="17.3"/>
			</g>
			<g>
				<g>
					<g>
						<path fill="#FFDEBF" d="M701,654.5c0,0-27.3,5-28.7,3.3s-0.3-3.1-0.3-3.1s-3.5,5.6-5.7,4.9s-2.1-1.7-2.1-1.7s-4.3,4.2-6.1,2.6
							s5.5-10.7,12.1-14.2c6.5-3.5,23.9-8.3,25.5-8.1s8.6,7,7.6,7.7C702.2,646.6,701,654.5,701,654.5z"/>
						<path fill="#FFDEBF" d="M718.1,656.9c0,0-14.7,4.1-22.2,2.2s-19.1,0.8-20.4-3.7s12.1-4.7,16.3-6.2c0,0-11.8-2.7-16-1.2
							c-4.2,1.5-10.4,3.9-13.3,8.3c-2.9,4.5-3.8,5.4-5.6,4.4c-1.8-1,7.1-15.4,11-18.8c3.9-3.3,19.8-7.6,25.8-7.6
							c6.1,0,13,3.6,16.5,4c3.5,0.5,12.5,2.1,12.5,2.1L718.1,656.9z"/>
					</g>
					<path fill="#FFDEBF" d="M722.8,640.5l78.5-10.2c0,0,32.8,5.9,28.9,33.3l-98.5-4L722.8,640.5z"/>
					<polygon fill="#FFDEBF" points="718.1,656.9 731.7,659.6 722.8,640.5 					"/>
				</g>
				<path fill="#802AB7" d="M830.2,663.6c-0.9-0.7,3.5-25.9-28.9-33.3l3.6-2.2c0,0,25.5-2.2,36.5,11.2L830.2,663.6z"/>
			</g>
			<path fill="#512220" d="M743,785.9H639.7c-26.8,0-48.5-48.5-48.5-48.5v0c0-26.8,21.7-48.5,48.5-48.5H743
				c26.8,0,48.5,21.7,48.5,48.5v0C791.4,764.2,769.8,785.9,743,785.9z"/>
			<path fill="#68312B" d="M791.4,737.5L791.4,737.5c0-26.8-21.7-48.5-48.5-48.5h-13.3c17.8,2.9,40.3,11.8,32.8,79
				c-0.5,4.9-2,10.2-1.8,14.5C778.7,775.5,791.4,758,791.4,737.5z"/>
			<path fill="#58595B" d="M824.4,790.7h-257c-6.3,0-11.4-5.1-11.4-11.4v-5c0-6.3,5.1-11.4,11.4-11.4h257c6.3,0,11.4,5.1,11.4,11.4
				v5C835.8,785.6,830.7,790.7,824.4,790.7z"/>
			<g>
				<g>
					<path fill="#FFDEBF" d="M721,1032c-0.5-1.3-16.6-64.1-16.6-64.1l-5.4-34.5l-30.7,5.2l12.2,38.8l8.3,62.4l28.3-1.7L721,1032z"/>
					<path fill="#68312B" d="M686.7,1050.4h46.1c2.3,0,3.9-2.1,3.1-4l-31.5-78.5l9.3,53.8c1,5.8-4.2,11-10.8,10.7l0,0
						c-4.6-0.2-8.5-3.1-9.6-7.1l-12.8-47.8l2.8,70C683.4,1049.1,684.9,1050.4,686.7,1050.4z"/>
				</g>
				<path fill="#68312B" d="M708,947.5l-34.5-224.2c-2.9-22.8-27.6-38-52.4-32.4h0c-24.7,5.6-38.3,29.3-29,50.6l75.7,214.7
					L708,947.5z"/>
				<path fill="#602B26" d="M708,947.5l-34.5-224.2c-2.9-22.8-27.6-38-52.4-32.4h0c-17.7,4-29.7,17.4-31.6,32.4
					c35.3-11.2,58.4-4.7,65.5,37.9c6.6,39.8,24.2,152.4,30.2,191.3L708,947.5z"/>
				<g>
					<path fill="#FFDEBF" d="M786.1,1032c-0.5-1.3-16.6-64.1-16.6-64.1l-5.4-34.5l-30.7,5.2l12.2,38.8l8.3,62.4l28.3-1.7L786.1,1032
						z"/>
					<path fill="#68312B" d="M751.7,1050.4h46.1c2.3,0,3.9-2.1,3.1-4l-31.5-78.5l9.3,53.8c1,5.8-4.2,11-10.8,10.7h0
						c-4.6-0.2-8.5-3.1-9.6-7.1l-12.8-47.8l2.8,70C748.5,1049.1,750,1050.4,751.7,1050.4z"/>
				</g>
				<path fill="#68312B" d="M772.3,947l-23.5-221.1c-5-34.9-35.9-39.6-58.1-34.6h0c-21.3,4.8-32.3,31.5-25.3,50.1L732.7,955
					L772.3,947z"/>
				<path fill="#602B26" d="M748.8,725.9c-5-34.9-35.9-39.6-58.1-34.6h0c-7,1.6-12.9,5.6-17.4,10.8c16.4-1.7,53.1,0.1,60.7,48.6
					c7.8,49.9,18.5,157.2,24.6,199l13.8-2.8L748.8,725.9z"/>
				<path fill="#84453E" d="M737.5,960.4l34.3-5.6c2.9-0.5,4.7-3.1,3.9-5.6l-0.4-1.2c-0.7-2.3-3.3-3.7-5.9-3.2l-34,6.8
					c-2.9,0.6-4.6,3.3-3.7,5.8l0,0C732.6,959.5,735,960.8,737.5,960.4z"/>
				<path fill="#84453E" d="M672.4,960.4l34.3-5.6c2.9-0.5,4.7-3.1,3.9-5.6l-0.4-1.2c-0.7-2.3-3.3-3.7-5.9-3.2l-34,6.8
					c-2.9,0.6-4.6,3.3-3.7,5.8l0,0C667.5,959.5,669.9,960.8,672.4,960.4z"/>
			</g>
			<path opacity="0.15" fill="#231F20" d="M818.6,529.1l18.6,106.1l-8.6,17.9c0,0-76,3.2-107.3,4.4l10.5,2l98.5,4l11.2-24.3
				L818.6,529.1z"/>
			<g>
				<path fill="#C67040" d="M1127.1,689.1H264.7c-4.8,0-8.7-3.9-8.7-8.7v-0.6c0-4.8,3.9-8.7,8.7-8.7h862.4c4.8,0,8.7,3.9,8.7,8.7
					v0.6C1135.9,685.2,1132,689.1,1127.1,689.1z"/>
				<path fill="#DC8954" d="M1155.2,676.5H236.6c-5.1,0-9.3-4.2-9.3-9.3v-0.7c0-5.1,4.2-9.3,9.3-9.3h918.6c5.1,0,9.3,4.2,9.3,9.3
					v0.7C1164.6,672.3,1160.4,676.5,1155.2,676.5z"/>
			</g>
			<g>
				<rect x="393.6" y="342.3" fill="#FFFBFF" width="83.2" height="18"/>
				<path fill="#BEC665" d="M478.2,359h-82.5c-0.4,0-0.7-0.3-0.7-0.7v-13.9c0-0.4,0.3-0.7,0.7-0.7h82.5c0.6,0,1.2-0.4,1.3-1.1
					c0.2-0.9-0.5-1.6-1.3-1.6h-83c-1.6,0-2.9,1.3-2.9,2.9v14.8c0,1.6,1.3,2.9,2.9,2.9h83c0.8,0,1.5-0.8,1.3-1.6
					C479.4,359.4,478.9,359,478.2,359z"/>
				<g>
					<path fill="#DDBCD2" d="M397.5,347.2h77.6c0.1,0,0.1-0.1,0.1-0.1s-0.1-0.1-0.1-0.1h-77.6c-0.1,0-0.1,0.1-0.1,0.1
						S397.5,347.2,397.5,347.2z"/>
					<path fill="#DDBCD2" d="M475.1,349.8h-77.6c-0.1,0-0.1,0.1-0.1,0.1s0.1,0.1,0.1,0.1h77.6c0.1,0,0.1-0.1,0.1-0.1
						S475.2,349.8,475.1,349.8z"/>
					<path fill="#DDBCD2" d="M475.1,352.6h-77.6c-0.1,0-0.1,0.1-0.1,0.1s0.1,0.1,0.1,0.1h77.6c0.1,0,0.1-0.1,0.1-0.1
						S475.2,352.6,475.1,352.6z"/>
					<path fill="#DDBCD2" d="M475.1,355.5h-77.6c-0.1,0-0.1,0.1-0.1,0.1s0.1,0.1,0.1,0.1h77.6c0.1,0,0.1-0.1,0.1-0.1
						S475.2,355.5,475.1,355.5z"/>
				</g>
			</g>
			<g>
				<g>
					<g>
						<rect x="820.9" y="412.2" fill="#FFFBFF" width="70.8" height="15.4"/>
						<path fill="#BEC665" d="M892.9,426.5l-70.2,0c-0.3,0-0.6-0.3-0.6-0.6V414c0-0.3,0.3-0.6,0.6-0.6h70.2c0.5,0,1-0.4,1.1-0.9
							c0.1-0.7-0.4-1.4-1.1-1.4h-70.7c-1.4,0-2.5,1.1-2.5,2.5v12.6c0,1.4,1.1,2.5,2.5,2.5h70.7c0.7,0,1.3-0.6,1.1-1.4
							C893.9,426.8,893.4,426.5,892.9,426.5z"/>
						<g>
							<path fill="#DDBCD2" d="M824.2,416.4h66c0.1,0,0.1-0.1,0.1-0.1s-0.1-0.1-0.1-0.1h-66c-0.1,0-0.1,0.1-0.1,0.1
								S824.1,416.4,824.2,416.4z"/>
							<path fill="#DDBCD2" d="M890.2,418.6h-66c-0.1,0-0.1,0.1-0.1,0.1s0.1,0.1,0.1,0.1h66c0.1,0,0.1-0.1,0.1-0.1
								S890.3,418.6,890.2,418.6z"/>
							<path fill="#DDBCD2" d="M890.2,421h-66c-0.1,0-0.1,0.1-0.1,0.1c0,0.1,0.1,0.1,0.1,0.1h66c0.1,0,0.1-0.1,0.1-0.1
								C890.4,421.1,890.3,421,890.2,421z"/>
							<path fill="#DDBCD2" d="M890.2,423.5h-66c-0.1,0-0.1,0.1-0.1,0.1c0,0.1,0.1,0.1,0.1,0.1h66c0.1,0,0.1-0.1,0.1-0.1
								C890.4,423.5,890.3,423.5,890.2,423.5z"/>
						</g>
					</g>
					<g>
						
							<rect x="815.4" y="394.6" transform="matrix(-1 -1.224647e-16 1.224647e-16 -1 1701.5789 804.5486)" fill="#FFFBFF" width="70.8" height="15.4"/>
						<path fill="#FFB058" d="M814.2,395.7h70.2c0.3,0,0.6,0.3,0.6,0.6v11.9c0,0.3-0.3,0.6-0.6,0.6h-70.2c-0.5,0-1,0.4-1.1,0.9
							c-0.1,0.7,0.4,1.4,1.1,1.4h70.7c1.4,0,2.5-1.1,2.5-2.5V396c0-1.4-1.1-2.5-2.5-2.5h-70.7c-0.7,0-1.3,0.6-1.1,1.4
							C813.2,395.4,813.7,395.7,814.2,395.7z"/>
						<g>
							<path fill="#DDBCD2" d="M882.9,405.8h-66c-0.1,0-0.1,0.1-0.1,0.1c0,0.1,0.1,0.1,0.1,0.1h66c0.1,0,0.1-0.1,0.1-0.1
								C883,405.9,882.9,405.8,882.9,405.8z"/>
							<path fill="#DDBCD2" d="M816.8,403.6h66c0.1,0,0.1-0.1,0.1-0.1s-0.1-0.1-0.1-0.1h-66c-0.1,0-0.1,0.1-0.1,0.1
								S816.8,403.6,816.8,403.6z"/>
							<path fill="#DDBCD2" d="M816.8,401.2h66c0.1,0,0.1-0.1,0.1-0.1s-0.1-0.1-0.1-0.1h-66c-0.1,0-0.1,0.1-0.1,0.1
								S816.8,401.2,816.8,401.2z"/>
							<path fill="#DDBCD2" d="M816.8,398.7h66c0.1,0,0.1-0.1,0.1-0.1s-0.1-0.1-0.1-0.1h-66c-0.1,0-0.1,0.1-0.1,0.1
								S816.8,398.7,816.8,398.7z"/>
						</g>
					</g>
					<g>
						<path fill="#BEC665" d="M910.3,428.8h-11.1c-2.4,0-4.4-2-4.4-4.4V338c0-2.4,2-4.4,4.4-4.4h11.1c2.4,0,4.4,2,4.4,4.4v86.4
							C914.7,426.8,912.7,428.8,910.3,428.8z"/>
						<path fill="#FFB058" d="M930.4,428.8h-11.4c-2.3,0-4.2-1.9-4.2-4.2v-80c0-2.3,1.9-4.2,4.2-4.2h11.4c2.3,0,4.2,1.9,4.2,4.2v80
							C934.6,426.9,932.7,428.8,930.4,428.8z"/>
						<path fill="#FF2E40" d="M950.2,428.8h-11.4c-2.3,0-4.2-1.9-4.2-4.2v-96.8c0-2.3,1.9-4.2,4.2-4.2h11.4c2.3,0,4.2,1.9,4.2,4.2
							v96.8C954.5,426.9,952.6,428.8,950.2,428.8z"/>
						<path fill="#FFB058" d="M970,428.8h-11.1c-2.4,0-4.4-2-4.4-4.4v-86.6c0-2.4,2-4.4,4.4-4.4H970c2.4,0,4.4,2,4.4,4.4v86.6
							C974.4,426.8,972.4,428.8,970,428.8z"/>
					</g>
					<path fill="#FFAD94" d="M977.1,436.7H801.3c-1.7,0-3.1-1.4-3.1-3.1v-1.7c0-1.7,1.4-3.1,3.1-3.1h175.8c1.7,0,3.1,1.4,3.1,3.1
						v1.7C980.2,435.3,978.9,436.7,977.1,436.7z"/>
				</g>
				<polygon opacity="0.15" fill="#5B3145" points="801.4,436.7 813.2,446.1 986.2,446.1 977,436.7 				"/>
			</g>
			<g>
				<path fill="#FFAD94" d="M526.1,368.9H364.2c-1.6,0-2.9-1.3-2.9-2.9v-1.6c0-1.6,1.3-2.9,2.9-2.9h161.9c1.6,0,2.9,1.3,2.9,2.9v1.6
					C529,367.6,527.7,368.9,526.1,368.9z"/>
				<polygon opacity="0.15" fill="#5B3145" points="364.3,368.9 375.1,377.6 534.5,377.6 526,368.9 				"/>
			</g>
		</g>
		<circle fill="#F9A7D0" cx="241.8" cy="414.3" r="57.4"/>
		<circle fill="#F9A7D0" cx="872.7" cy="263.9" r="48"/>
		<circle fill="#F8D0CA" cx="1238.7" cy="647.3" r="31.9"/>
		<circle fill="#F9A7D0" cx="418" cy="1145.9" r="25.7"/>
		<circle fill="#F9A7D0" cx="510.9" cy="1181.6" r="52"/>
	</g>
</g>
</svg>
