<?xml version="1.0" encoding="utf-8"?>
<!-- Generator: Adobe Illustrator 16.0.0, SVG Export Plug-In . SVG Version: 6.00 Build 0)  -->
<!DOCTYPE svg PUBLIC "-//W3C//DTD SVG 1.1//EN" "http://www.w3.org/Graphics/SVG/1.1/DTD/svg11.dtd">
<svg version="1.1" id="Layer_1" xmlns="http://www.w3.org/2000/svg" xmlns:xlink="http://www.w3.org/1999/xlink" x="0px" y="0px"
	 width="335.986px" height="235.19px" viewBox="0 0 335.986 235.19" enable-background="new 0 0 335.986 235.19"
	 xml:space="preserve">
<g>
	<g>
		<rect x="0" fill="#0E3C54" width="335.986" height="235.19"/>
	</g>
</g>
<g>
	<g>
		<path fill="none" stroke="#FFFFFF" stroke-width="2" stroke-linejoin="round" stroke-miterlimit="10" d="M273.482,104.682
			c4.994,0,9.982,0,14.977,0"/>
	</g>
	
		<line fill="none" stroke="#FFFFFF" stroke-width="2" stroke-linejoin="round" stroke-miterlimit="10" x1="292.676" y1="104.682" x2="301.117" y2="104.682"/>
</g>
<g>
	<g>
		<path fill="none" stroke="#FFFFFF" stroke-width="2" stroke-linejoin="round" stroke-miterlimit="10" d="M291.961,97.159
			c4.992,0,18.42,0,23.412,0"/>
	</g>
	
		<line fill="none" stroke="#FFFFFF" stroke-width="2" stroke-linejoin="round" stroke-miterlimit="10" x1="311.152" y1="97.159" x2="319.594" y2="97.159"/>
</g>
<g>
	<g>
		<path fill="none" stroke="#FFFFFF" stroke-width="2" stroke-linejoin="round" stroke-miterlimit="10" d="M15.485,155.646
			c4.508,0,9.011,0,13.519,0"/>
	</g>
	
		<line fill="none" stroke="#FFFFFF" stroke-width="2" stroke-linejoin="round" stroke-miterlimit="10" x1="32.811" y1="155.646" x2="40.431" y2="155.646"/>
</g>
<g>
	<g>
		<path fill="none" stroke="#FFFFFF" stroke-width="2" stroke-linejoin="round" stroke-miterlimit="10" d="M164.986,12.821
			c4.506,0,9.01,0,13.518,0"/>
	</g>
	
		<line fill="none" stroke="#FFFFFF" stroke-width="2" stroke-linejoin="round" stroke-miterlimit="10" x1="182.312" y1="12.821" x2="189.932" y2="12.821"/>
</g>
<g>
	<g>
		<path fill="none" stroke="#FFFFFF" stroke-width="2" stroke-linejoin="round" stroke-miterlimit="10" d="M105.657,191.73
			c-4.185,0-8.367,0-12.553,0"/>
	</g>
	
		<line fill="none" stroke="#FFFFFF" stroke-width="2" stroke-linejoin="round" stroke-miterlimit="10" x1="89.568" y1="191.73" x2="82.492" y2="191.73"/>
</g>
<g>
	<g>
		<path fill="none" stroke="#FFFFFF" stroke-width="2" stroke-linejoin="round" stroke-miterlimit="10" d="M319.982,130.375
			c-4.184,0-8.367,0-12.553,0"/>
	</g>
	
		<line fill="none" stroke="#FFFFFF" stroke-width="2" stroke-linejoin="round" stroke-miterlimit="10" x1="303.895" y1="130.375" x2="296.818" y2="130.375"/>
</g>
<g>
	<g>
		<path fill="none" stroke="#FFFFFF" stroke-width="2" stroke-linejoin="round" stroke-miterlimit="10" d="M90.307,73.81
			c-2.629,0-5.257,0-7.887,0"/>
	</g>
	
		<line fill="none" stroke="#FFFFFF" stroke-width="2" stroke-linejoin="round" stroke-miterlimit="10" x1="80.2" y1="73.81" x2="75.753" y2="73.81"/>
</g>
<g>
	
		<line fill="none" stroke="#FFFFFF" stroke-width="2" stroke-linejoin="round" stroke-miterlimit="10" x1="234.537" y1="152.765" x2="241.859" y2="160.085"/>
	
		<line fill="none" stroke="#FFFFFF" stroke-width="2" stroke-linejoin="round" stroke-miterlimit="10" x1="234.537" y1="160.085" x2="241.859" y2="152.765"/>
</g>
<g>
	
		<line fill="none" stroke="#FFFFFF" stroke-width="2" stroke-linejoin="round" stroke-miterlimit="10" x1="103.594" y1="133.883" x2="110.916" y2="141.203"/>
	
		<line fill="none" stroke="#FFFFFF" stroke-width="2" stroke-linejoin="round" stroke-miterlimit="10" x1="103.594" y1="141.203" x2="110.916" y2="133.883"/>
</g>
<g>
	
		<line fill="none" stroke="#FFFFFF" stroke-width="2" stroke-linejoin="round" stroke-miterlimit="10" x1="14.124" y1="83.418" x2="21.444" y2="90.738"/>
	
		<line fill="none" stroke="#FFFFFF" stroke-width="2" stroke-linejoin="round" stroke-miterlimit="10" x1="14.124" y1="90.738" x2="21.444" y2="83.418"/>
</g>
<g>
	
		<line fill="none" stroke="#FFFFFF" stroke-width="2" stroke-linejoin="round" stroke-miterlimit="10" x1="246.521" y1="12.874" x2="253.842" y2="20.194"/>
	
		<line fill="none" stroke="#FFFFFF" stroke-width="2" stroke-linejoin="round" stroke-miterlimit="10" x1="246.521" y1="20.194" x2="253.842" y2="12.874"/>
</g>
<path fill="#EB4C49" d="M218.873,116.599h-56.525c-3.936,0-7.139-3.068-7.139-6.84c0-3.774,3.203-6.845,7.139-6.845h9.142v-2.508
	h-9.142c-5.378,0-9.755,4.195-9.755,9.353c0,5.152,4.377,9.347,9.755,9.347h56.525c3.938,0,7.141,3.07,7.141,6.845
	c0,3.771-3.203,6.84-7.141,6.84h-27.287c-5.379,0-9.754,4.196-9.754,9.352v0.416h2.615v-0.416c0-3.77,3.203-6.842,7.139-6.842
	h27.287c5.379,0,9.754-4.194,9.754-9.35S224.252,116.599,218.873,116.599"/>
<path fill="#C4C4C4" d="M216.693,149.689c0-3.567-2.76-6.487-6.258-6.761l-0.027-0.027h-82.223l-0.007,0.005
	c-0.033,0-0.066-0.002-0.098-0.002c-3.752,0-6.789,3.038-6.789,6.785c0,0.182,0.013,0.358,0.025,0.532l-0.025,0.032v29.164h95.398
	v-29.665v-0.002C216.689,149.73,216.693,149.712,216.693,149.689"/>
<path fill="#DBDBDB" d="M216.693,148.241c0-3.57-2.76-6.489-6.258-6.762l-0.027-0.028h-82.223l-0.007,0.005
	c-0.033,0-0.066-0.005-0.098-0.005c-3.752,0-6.789,3.042-6.789,6.79c0,0.18,0.013,0.356,0.025,0.533l-0.025,0.029v29.164h95.398
	v-29.664v-0.005C216.689,148.282,216.693,148.261,216.693,148.241"/>
<g opacity="0.87">
	<g>
		<defs>
			<rect id="SVGID_1_" x="127.098" y="149.46" width="83.226" height="24.479"/>
		</defs>
		<clipPath id="SVGID_2_">
			<use xlink:href="#SVGID_1_"  overflow="visible"/>
		</clipPath>
		<rect x="127.098" y="167.761" clip-path="url(#SVGID_2_)" fill="#CECECE" width="6.175" height="6.178"/>
		<rect x="185.115" y="167.761" clip-path="url(#SVGID_2_)" fill="#CECECE" width="6.178" height="6.178"/>
		<rect x="194.785" y="167.761" clip-path="url(#SVGID_2_)" fill="#CECECE" width="6.176" height="6.178"/>
		<rect x="204.148" y="167.761" clip-path="url(#SVGID_2_)" fill="#CECECE" width="6.176" height="6.178"/>
		<rect x="185.115" y="158.983" clip-path="url(#SVGID_2_)" fill="#CECECE" width="6.178" height="6.177"/>
		<rect x="194.785" y="158.983" clip-path="url(#SVGID_2_)" fill="#CECECE" width="6.176" height="6.177"/>
		<rect x="204.148" y="158.983" clip-path="url(#SVGID_2_)" fill="#CECECE" width="6.176" height="6.177"/>
		<rect x="185.115" y="149.46" clip-path="url(#SVGID_2_)" fill="#CECECE" width="6.178" height="6.178"/>
		<rect x="194.785" y="149.46" clip-path="url(#SVGID_2_)" fill="#CECECE" width="6.176" height="6.178"/>
		<rect x="204.148" y="149.46" clip-path="url(#SVGID_2_)" fill="#CECECE" width="6.176" height="6.178"/>
		<rect x="127.098" y="158.983" clip-path="url(#SVGID_2_)" fill="#CECECE" width="6.175" height="6.177"/>
		<rect x="136.767" y="158.983" clip-path="url(#SVGID_2_)" fill="#CECECE" width="6.177" height="6.177"/>
		<rect x="146.133" y="158.983" clip-path="url(#SVGID_2_)" fill="#CECECE" width="6.177" height="6.177"/>
		<rect x="127.098" y="149.46" clip-path="url(#SVGID_2_)" fill="#CECECE" width="6.175" height="6.178"/>
		<rect x="136.767" y="149.46" clip-path="url(#SVGID_2_)" fill="#CECECE" width="6.177" height="6.178"/>
		<rect x="146.133" y="149.46" clip-path="url(#SVGID_2_)" fill="#CECECE" width="6.177" height="6.178"/>
		<rect x="155.335" y="158.983" clip-path="url(#SVGID_2_)" fill="#CECECE" width="6.177" height="6.177"/>
		<rect x="165.006" y="158.983" clip-path="url(#SVGID_2_)" fill="#CECECE" width="6.177" height="6.177"/>
		<rect x="174.369" y="158.983" clip-path="url(#SVGID_2_)" fill="#CECECE" width="6.18" height="6.177"/>
		<rect x="155.335" y="149.46" clip-path="url(#SVGID_2_)" fill="#CECECE" width="6.177" height="6.178"/>
		<rect x="165.006" y="149.46" clip-path="url(#SVGID_2_)" fill="#CECECE" width="6.177" height="6.178"/>
		<rect x="174.369" y="149.46" clip-path="url(#SVGID_2_)" fill="#CECECE" width="6.18" height="6.178"/>
		<rect x="137.302" y="167.761" clip-path="url(#SVGID_2_)" fill="#CECECE" width="43.247" height="6.178"/>
	</g>
</g>
<rect x="127.098" y="166.844" fill="#FFFFFF" width="6.175" height="6.179"/>
<rect x="185.115" y="166.844" fill="#FFFFFF" width="6.178" height="6.179"/>
<rect x="194.785" y="166.844" fill="#FFFFFF" width="6.176" height="6.179"/>
<rect x="204.148" y="166.844" fill="#FFFFFF" width="6.176" height="6.179"/>
<rect x="185.115" y="158.069" fill="#FFFFFF" width="6.178" height="6.179"/>
<rect x="194.785" y="158.069" fill="#FFFFFF" width="6.176" height="6.179"/>
<rect x="204.148" y="158.069" fill="#FFFFFF" width="6.176" height="6.179"/>
<rect x="185.115" y="148.546" fill="#FFFFFF" width="6.178" height="6.177"/>
<rect x="194.785" y="148.546" fill="#FFFFFF" width="6.176" height="6.177"/>
<rect x="204.148" y="148.546" fill="#FFFFFF" width="6.176" height="6.177"/>
<rect x="127.098" y="158.069" fill="#FFFFFF" width="6.175" height="6.179"/>
<rect x="136.767" y="158.069" fill="#FFFFFF" width="6.177" height="6.179"/>
<rect x="146.133" y="158.069" fill="#FFFFFF" width="6.177" height="6.179"/>
<rect x="127.098" y="148.546" fill="#FFFFFF" width="6.175" height="6.177"/>
<rect x="136.767" y="148.546" fill="#FFFFFF" width="6.177" height="6.177"/>
<rect x="146.133" y="148.546" fill="#FFFFFF" width="6.177" height="6.177"/>
<rect x="155.335" y="158.069" fill="#FFFFFF" width="6.177" height="6.179"/>
<rect x="165.006" y="158.069" fill="#FFFFFF" width="6.177" height="6.179"/>
<rect x="174.369" y="158.069" fill="#FFFFFF" width="6.18" height="6.179"/>
<rect x="155.335" y="148.546" fill="#FFFFFF" width="6.177" height="6.177"/>
<rect x="165.006" y="148.546" fill="#FFFFFF" width="6.177" height="6.177"/>
<rect x="174.369" y="148.546" fill="#FFFFFF" width="6.18" height="6.177"/>
<rect x="137.302" y="166.844" fill="#FFFFFF" width="43.247" height="6.179"/>
<g>
	<path fill="#FFFFFF" d="M190.609,193.882c1.652,0,2.992,1.359,2.992,3.036v22.349c0,1.676-1.34,3.035-2.992,3.035l0,0
		c-1.65,0-2.99-1.359-2.99-3.035v-22.349C187.619,195.241,188.957,193.882,190.609,193.882L190.609,193.882z"/>
	<path fill="#FFFFFF" d="M180.178,222.435c0,4.355,3.48,7.883,7.77,7.883h12.627c4.291,0,7.77-3.527,7.77-7.883v-12.811
		c0-4.354-3.479-7.885-7.77-7.885h-12.627c-4.291,0-7.77,3.53-7.77,7.885V222.435z"/>
	<path fill="#FFFFFF" d="M205.354,199.816c1.652,0,2.99,1.358,2.99,3.035v14.314c0,1.675-1.338,3.034-2.99,3.034l0,0
		c-1.652,0-2.99-1.359-2.99-3.034v-14.314C202.363,201.175,203.701,199.816,205.354,199.816L205.354,199.816z"/>
	<path fill="#FFFFFF" d="M198.033,196.646c1.652,0,2.992,1.36,2.992,3.035v22.349c0,1.676-1.34,3.035-2.992,3.035l0,0
		c-1.652,0-2.992-1.359-2.992-3.035v-22.349C195.041,198.007,196.381,196.646,198.033,196.646L198.033,196.646z"/>
	<path fill="#FFFFFF" d="M183.188,184.498c1.65,0,2.99,1.361,2.99,3.036v22.349c0,1.677-1.34,3.036-2.99,3.036l0,0
		c-1.652,0-2.992-1.359-2.992-3.036v-22.349C180.195,185.859,181.535,184.498,183.188,184.498L183.188,184.498z"/>
	<path fill="#FFFFFF" d="M205.215,234.882v-8.086c0.002-2.955-2.357-5.349-5.27-5.349h-8.562c-2.912,0-5.273,2.392-5.273,5.349
		v8.086H205.215z"/>
	<path fill="#FFFFFF" d="M178.799,221.304v-11.579c0-2.475-1.975-4.481-4.418-4.481h-1.469c-0.062,0-0.123,0.009-0.186,0.012v9.889
		L178.799,221.304z"/>
	<path fill="#FFFFFF" d="M182.604,219.646l-7.412-7.521c-0.703-0.713-1.582-1.131-2.492-1.263v7.448l9.904,10.049V219.646z"/>
</g>
<g>
	<g>
		<path fill="#FFFFFF" d="M155.497,219.597c0,4.354-3.479,7.885-7.77,7.884h-12.626c-4.29,0.001-7.77-3.529-7.769-7.884
			l-0.001-12.812c0-4.351,3.478-7.883,7.77-7.883h12.626c4.291,0,7.77,3.53,7.77,7.883V219.597z"/>
		<path fill="#FFFFFF" d="M130.323,188.881c-1.652,0-2.991,1.36-2.991,3.035v22.349c0,1.676,1.339,3.035,2.991,3.035l0,0
			c1.65,0,2.99-1.359,2.99-3.035v-22.349C133.313,190.241,131.973,188.881,130.323,188.881L130.323,188.881z"/>
		<path fill="#FFFFFF" d="M137.642,181.662c-1.651,0-2.991,1.359-2.991,3.035v22.349c0,1.677,1.34,3.035,2.991,3.035l0,0
			c1.651,0,2.991-1.358,2.991-3.035v-22.349C140.633,183.021,139.293,181.662,137.642,181.662L137.642,181.662z"/>
		<path fill="#FFFFFF" d="M152.489,181.662c-1.65,0-2.991,1.359-2.991,3.035v22.349c0,1.677,1.341,3.035,2.991,3.035l0,0
			c1.652,0,2.99-1.358,2.99-3.035v-22.349C155.479,183.021,154.141,181.662,152.489,181.662L152.489,181.662z"/>
		<path fill="#FFFFFF" d="M145.065,174.443c-1.65,0-2.99,1.358-2.99,3.035v22.349c-0.001,1.677,1.34,3.036,2.99,3.036l0,0
			c1.651,0,2.991-1.359,2.991-3.036v-22.349C148.056,175.802,146.717,174.443,145.065,174.443L145.065,174.443z"/>
		<path fill="#FFFFFF" d="M149.565,234.882V217.22c0-2.957-2.36-5.349-5.271-5.349h-8.564c-2.911,0-5.271,2.394-5.27,5.349v17.662
			H149.565z"/>
		<path fill="#FFFFFF" d="M156.875,218.466v-11.579c0-2.474,1.979-4.479,4.418-4.479h1.471c0.062,0,0.123,0.006,0.186,0.009v9.889
			L156.875,218.466z"/>
		<path fill="#FFFFFF" d="M153.073,216.81l7.413-7.521c0.701-0.713,1.58-1.129,2.491-1.262v7.445l-9.904,10.052V216.81z"/>
	</g>
</g>
<g>
	<polygon fill="#4F97CD" points="90.451,154.223 72.865,145.496 55.281,136.769 64.138,127.913 72.993,119.055 81.724,136.641 	"/>
	<path fill="#4F97CD" d="M92.324,114.317c0,17.777-14.411,32.186-32.186,32.186c-17.773,0-32.18-14.408-32.18-32.186
		c0-17.772,14.406-32.183,32.18-32.183C77.913,82.135,92.324,96.545,92.324,114.317z"/>
	<g>
		<path fill="#F7F8FC" d="M72.717,101.913c-0.271-0.229-0.623-0.312-0.959-0.223l-16.5,4.328c-0.503,0.129-0.855,0.615-0.855,1.167
			v5.593v8.527c-0.245-0.049-0.504-0.087-0.778-0.087c-0.9,0-1.898,0.267-2.896,0.774c-2.246,1.143-4.417,3.573-4.027,5.836
			c0.242,1.388,1.38,2.256,2.971,2.256c0.898,0,1.9-0.272,2.898-0.777c2.17-1.109,4.276-3.421,4.052-5.624h0.017v-9.957
			l14.269-3.737v6.993c-0.25-0.057-0.5-0.084-0.777-0.084c-0.897,0-1.9,0.265-2.9,0.774c-2.239,1.134-4.413,3.568-4.021,5.831
			c0.234,1.393,1.379,2.251,2.97,2.251c0.896,0,1.896-0.264,2.895-0.771c2.181-1.108,4.273-3.424,4.055-5.621h0.02V108.45v-5.589
			C73.147,102.493,72.984,102.145,72.717,101.913z"/>
		<path fill="#F7F8FC" d="M49.793,109.997h0.026V99.96h-1.363v8.59c-0.147-0.028-0.306-0.049-0.47-0.049
			c-0.548,0-1.159,0.158-1.77,0.475c-1.366,0.688-2.689,2.172-2.445,3.546c0.144,0.843,0.839,1.372,1.805,1.372
			c0.549,0,1.155-0.163,1.765-0.473C48.663,112.751,49.931,111.337,49.793,109.997z"/>
	</g>
</g>
<g>
	<g>
		<g>
			<g>
				<g>
					<path fill="#FFAD00" d="M286.615,19.714c-18.049,0-32.678,14.623-32.678,32.678c0,8.062,2.928,15.426,7.775,21.13
						l-7.617,14.437l13.852-8.774c5.291,3.694,11.721,5.882,18.668,5.882c18.043,0,32.672-14.635,32.672-32.674
						C319.287,34.337,304.658,19.714,286.615,19.714z"/>
				</g>
			</g>
		</g>
	</g>
	<path fill="#F7F8FC" d="M300.744,43.276h-25.945l-1.033-3.217c-0.035-0.164-0.092-0.309-0.172-0.445
		c-0.004-0.006-0.008-0.013-0.008-0.013c-0.045-0.077-0.104-0.147-0.152-0.222c-0.031-0.029-0.059-0.059-0.09-0.088
		c-0.031-0.036-0.066-0.076-0.109-0.106c-0.055-0.052-0.113-0.087-0.172-0.13c-0.018-0.01-0.035-0.022-0.055-0.037
		c-0.33-0.194-0.725-0.271-1.129-0.194l-3.627,0.303c-0.895,0.05-1.574,0.812-1.527,1.701c0.051,0.891,0.814,1.569,1.705,1.523
		l2.613-0.222l6.414,20.153c-0.557,0.675-0.912,1.528-0.912,2.479c0,2.146,1.742,3.884,3.885,3.884c1.568,0,2.91-0.93,3.521-2.261
		l5.191-0.021c0.611,1.343,1.959,2.281,3.529,2.281c2.152,0,3.891-1.738,3.891-3.884c0-2.147-1.738-3.889-3.891-3.889
		c-1.562,0-2.906,0.932-3.52,2.265l-5.186,0.021c-0.615-1.347-1.965-2.286-3.537-2.286c-0.004,0-0.02,0.002-0.031,0.004l-0.752-2.35
		h16.695c1.951,0,2.281-1.32,3.525-3.521l4.4-8.214C305.957,43.568,302.684,43.276,300.744,43.276z"/>
</g>
<g>
	<g>
		<g>
			<g>
				<path fill="#FFAD00" d="M286.611,184.158l-16.305-22.442c4.959-3.595,10.176-5.291,16.305-5.291V184.158z"/>
			</g>
		</g>
		<g>
			<g>
				<path fill="#EB4C49" d="M286.611,184.158v-27.733c15.314,0,27.736,12.412,27.736,27.733c0,15.319-12.422,27.74-27.736,27.74
					c-15.322,0-27.74-12.421-27.74-27.74c0-9.188,3.998-17.036,11.436-22.442L286.611,184.158z"/>
			</g>
		</g>
	</g>
	<g>
		<g>
			<g>
				<path fill="#4F97CD" d="M286.605,184.158l26.381,8.572c4.734-14.568-3.24-30.216-17.809-34.949
					c-2.914-0.945-5.508-1.356-8.572-1.356V184.158z"/>
			</g>
		</g>
	</g>
</g>
<g>
	<polygon fill="#FFAD00" points="77.397,169.281 69.734,182.683 62.076,196.087 55.528,188.729 48.986,181.37 63.189,175.323 	"/>
	<circle fill="#FFAD00" cx="44.687" cy="191.954" r="25.309"/>
	<g>
		<path fill="#F7F8FC" d="M49.484,184.874h2.215l-1.518,8.579c-0.169,0.992-0.176,1.71-0.017,2.153
			c0.158,0.443,0.511,0.666,1.062,0.666c0.547,0,1.09-0.129,1.612-0.381c0.528-0.254,1.004-0.645,1.428-1.174
			c0.421-0.526,0.765-1.191,1.03-1.993c0.262-0.802,0.395-1.751,0.395-2.849c0-1.582-0.266-2.934-0.793-4.054
			c-0.525-1.118-1.25-2.043-2.166-2.771c-0.92-0.729-2.001-1.259-3.248-1.598c-1.244-0.338-2.586-0.506-4.021-0.506
			c-1.644,0-3.179,0.296-4.591,0.885c-1.415,0.593-2.645,1.404-3.691,2.439c-1.042,1.035-1.861,2.266-2.45,3.687
			c-0.593,1.427-0.889,2.976-0.889,4.64c0,1.645,0.247,3.124,0.746,4.434c0.495,1.307,1.218,2.422,2.169,3.342
			c0.949,0.914,2.124,1.623,3.529,2.12c1.402,0.493,3.014,0.745,4.83,0.745c0.609,0,1.309-0.075,2.088-0.223
			c0.781-0.15,1.486-0.371,2.12-0.664l0.981,3.037c-0.863,0.423-1.748,0.719-2.646,0.887c-0.893,0.169-1.922,0.254-3.085,0.254
			c-2.049,0-3.939-0.297-5.685-0.888c-1.739-0.589-3.247-1.465-4.526-2.626c-1.275-1.162-2.272-2.604-2.991-4.324
			s-1.078-3.709-1.078-5.968c0-2.3,0.414-4.379,1.237-6.239c0.822-1.854,1.929-3.436,3.324-4.746
			c1.393-1.31,3.008-2.316,4.844-3.023s3.777-1.061,5.827-1.061c1.939,0,3.747,0.28,5.413,0.838c1.668,0.559,3.115,1.36,4.335,2.406
			c1.228,1.046,2.186,2.322,2.882,3.832c0.699,1.508,1.046,3.225,1.046,5.145c0,1.35-0.236,2.615-0.712,3.801
			c-0.477,1.182-1.127,2.206-1.964,3.07c-0.834,0.865-1.806,1.551-2.912,2.058c-1.107,0.509-2.296,0.758-3.562,0.758
			c-0.527,0-1.018-0.056-1.473-0.172c-0.453-0.116-0.832-0.311-1.141-0.586c-0.305-0.274-0.533-0.632-0.68-1.078
			c-0.149-0.443-0.19-0.991-0.126-1.645h-0.126c-0.317,0.443-0.66,0.874-1.03,1.298c-0.368,0.422-0.776,0.797-1.221,1.122
			c-0.438,0.329-0.93,0.588-1.453,0.778c-0.53,0.187-1.11,0.282-1.741,0.282c-0.509,0-0.994-0.108-1.457-0.331
			c-0.467-0.223-0.868-0.533-1.205-0.934c-0.336-0.402-0.608-0.887-0.809-1.457c-0.196-0.568-0.3-1.203-0.3-1.898
			c0-1.31,0.212-2.58,0.636-3.817c0.422-1.233,0.997-2.326,1.723-3.274c0.728-0.952,1.574-1.715,2.535-2.294
			c0.958-0.579,1.979-0.872,3.057-0.872c0.738,0,1.359,0.107,1.864,0.332c0.511,0.221,0.972,0.511,1.396,0.87L49.484,184.874z
			 M47.49,188.704c-0.275-0.234-0.56-0.41-0.854-0.538c-0.298-0.126-0.667-0.188-1.107-0.188c-0.634,0-1.22,0.177-1.758,0.534
			c-0.537,0.361-1.003,0.825-1.396,1.395c-0.389,0.572-0.689,1.21-0.9,1.918c-0.213,0.705-0.316,1.396-0.316,2.071
			c0,0.696,0.143,1.267,0.428,1.71c0.284,0.443,0.776,0.666,1.473,0.666c0.295,0,0.611-0.09,0.948-0.271
			c0.336-0.178,0.667-0.414,0.981-0.711c0.316-0.296,0.621-0.635,0.919-1.012c0.295-0.382,0.56-0.779,0.789-1.207L47.49,188.704z"/>
	</g>
</g>
<rect x="152.542" y="111.828" fill-rule="evenodd" clip-rule="evenodd" fill="#D1CDBC" width="33.007" height="11.57"/>
<path fill-rule="evenodd" clip-rule="evenodd" fill="#F5F5F5" d="M107.713,20.831h122.666c1.879,0,3.412,1.555,3.412,3.411v86.141
	c0,1.877-1.545,3.411-3.412,3.411H107.713c-1.871,0-3.415-1.534-3.415-3.411V24.242C104.298,22.363,105.834,20.831,107.713,20.831z"
	/>
<path fill-rule="evenodd" clip-rule="evenodd" fill="#1C3240" d="M109.186,23.793c-1.057,0-1.932,0.884-1.932,1.934v72.841
	c0,1.047,0.875,1.93,1.932,1.93h119.722c1.055,0,1.93-0.883,1.93-1.93V25.727c0-1.05-0.875-1.934-1.93-1.934H109.186z"/>
<path fill-rule="evenodd" clip-rule="evenodd" fill="#1A3E52" d="M215.955,100.497h12.953c1.055,0,1.93-0.883,1.93-1.93V25.727
	c0-1.05-0.875-1.934-1.93-1.934h-57.234L215.955,100.497z"/>
<rect x="111.787" y="27.839" fill-rule="evenodd" clip-rule="evenodd" fill="#FFAD00" width="114.52" height="68.61"/>
<path fill-rule="evenodd" clip-rule="evenodd" fill="#F5F5F5" d="M145.913,122.748h46.267c0.904,0,1.654,0.743,1.654,1.665v1.442
	c0,0.924-0.75,1.662-1.654,1.662h-46.267c-0.902,0-1.654-0.738-1.654-1.662v-1.442C144.258,123.491,145.01,122.748,145.913,122.748z
	"/>
<rect x="124.733" y="34.362" fill-rule="evenodd" clip-rule="evenodd" fill="#EB4C49" width="40.273" height="40.273"/>
<rect x="169.047" y="34.362" fill-rule="evenodd" clip-rule="evenodd" fill="#ECECEC" width="44.312" height="26.248"/>
<rect x="125.601" y="79.163" fill-rule="evenodd" clip-rule="evenodd" fill="#F5F5F5" width="53.418" height="11.234"/>
<rect x="168.801" y="64.512" fill-rule="evenodd" clip-rule="evenodd" fill="#F5F5F5" width="44.558" height="10.749"/>
<rect x="186.109" y="79.163" fill-rule="evenodd" clip-rule="evenodd" fill="#4F97CD" width="27.25" height="11.234"/>
<polygon fill-rule="evenodd" clip-rule="evenodd" fill="#F2F2F2" points="247.938,106.077 261.445,111.652 274.984,117.216 
	266.979,120.96 272.492,126.481 268.369,130.627 262.852,125.138 259.072,133.101 253.514,119.566 "/>
<path fill="#FFFFFF" d="M144.25,42.101c-6.807,0.003-12.322,5.56-12.32,12.406c0.006,6.849,5.527,12.4,12.336,12.39
	c6.811-0.007,12.33-5.562,12.322-12.405C156.586,47.646,151.059,42.091,144.25,42.101z M149.266,54.592l-8.193,4.763
	c-0.066,0.04-0.117,0.051-0.143,0.056c-0.008-0.022-0.018-0.07-0.018-0.146l-0.01-9.524c0.008-0.089,0.014-0.137,0.018-0.157
	c0.02,0.008,0.07,0.021,0.145,0.066l8.201,4.752c0.074,0.046,0.109,0.076,0.127,0.088C149.379,54.509,149.34,54.547,149.266,54.592z
	"/>
<path fill="#EB4C49" d="M49.493,21.912l-0.041-3.361c-5.894,0.067-11.766,2.387-16.211,6.937
	c-8.895,9.105-8.729,23.697,0.379,32.593c9.104,8.892,23.694,8.724,32.588-0.383c2.551-2.609,4.353-5.676,5.416-8.928l-21.9-7.176
	L49.493,21.912z"/>
<path fill="#FFFFFF" d="M67.926,34.689c-0.939-2.596-2.452-5.023-4.535-7.085l0.09-0.094c-3.889-3.797-8.951-5.659-13.988-5.599
	l0.23,19.498l-0.256,0.263l18.6,5.953C69.476,43.408,69.43,38.833,67.926,34.689z"/>
<circle fill="none" stroke="#FFFFFF" stroke-width="3" stroke-miterlimit="10" cx="49.843" cy="41.843" r="27.325"/>
<path fill="none" stroke="#FFFFFF" stroke-width="3" stroke-miterlimit="10" d="M313.371,165.073
	c10.648,14.778,7.297,35.391-7.48,46.038c-14.775,10.648-35.389,7.301-46.037-7.477c-10.648-14.779-7.301-35.39,7.479-46.038
	C282.107,146.946,302.721,150.294,313.371,165.073z"/>
</svg>
