<?xml version="1.0" encoding="utf-8"?>
<!-- Generator: Adobe Illustrator 16.0.0, SVG Export Plug-In . SVG Version: 6.00 Build 0)  -->
<!DOCTYPE svg PUBLIC "-//W3C//DTD SVG 1.1//EN" "http://www.w3.org/Graphics/SVG/1.1/DTD/svg11.dtd">
<svg version="1.1" xmlns="http://www.w3.org/2000/svg" xmlns:xlink="http://www.w3.org/1999/xlink" x="0px" y="0px"
	 width="335.986px" height="235.19px" viewBox="0 0 335.986 235.19" enable-background="new 0 0 335.986 235.19"
	 xml:space="preserve">
<g id="bg">
	<g>
		<g>
			<rect y="0" fill="#F4655F" width="335.986" height="235.189"/>
		</g>
	</g>
	<rect x="90.346" y="36.621" fill="none" width="160.395" height="8.187"/>
	<text transform="matrix(1 0 0 1 90.3457 39.6641)"><tspan x="0" y="0" fill="#FFFFFF" font-family="'NeoSansPro-Medium'" font-size="4">Lorem</tspan><tspan x="11.548" y="0" fill="#FFFFFF" font-family="'NeoSansPro-Medium'" font-size="4" letter-spacing="1"> </tspan><tspan x="13.828" y="0" fill="#FFFFFF" font-family="'NeoSansPro-Medium'" font-size="4">ipsum</tspan><tspan x="24.924" y="0" fill="#FFFFFF" font-family="'NeoSansPro-Medium'" font-size="4" letter-spacing="1"> </tspan><tspan x="27.204" y="0" fill="#FFFFFF" font-family="'NeoSansPro-Medium'" font-size="4">dolor</tspan><tspan x="36.691" y="0" fill="#FFFFFF" font-family="'NeoSansPro-Medium'" font-size="4" letter-spacing="1"> </tspan><tspan x="38.972" y="0" fill="#FFFFFF" font-family="'NeoSansPro-Medium'" font-size="4">sit</tspan><tspan x="43.62" y="0" fill="#FFFFFF" font-family="'NeoSansPro-Medium'" font-size="4" letter-spacing="1"> </tspan><tspan x="45.9" y="0" fill="#FFFFFF" font-family="'NeoSansPro-Medium'" font-size="4">amet,</tspan><tspan x="56.438" y="0" fill="#FFFFFF" font-family="'NeoSansPro-Medium'" font-size="4" letter-spacing="1"> </tspan><tspan x="58.718" y="0" fill="#FFFFFF" font-family="'NeoSansPro-Medium'" font-size="4">consectetur</tspan><tspan x="80.782" y="0" fill="#FFFFFF" font-family="'NeoSansPro-Medium'" font-size="4" letter-spacing="1"> </tspan><tspan x="83.062" y="0" fill="#FFFFFF" font-family="'NeoSansPro-Medium'" font-size="4">adipiscing</tspan><tspan x="101.619" y="0" fill="#FFFFFF" font-family="'NeoSansPro-Medium'" font-size="4" letter-spacing="1"> </tspan><tspan x="103.899" y="0" fill="#FFFFFF" font-family="'NeoSansPro-Medium'" font-size="4">elit,</tspan><tspan x="111.012" y="0" fill="#FFFFFF" font-family="'NeoSansPro-Medium'" font-size="4" letter-spacing="1"> </tspan><tspan x="113.292" y="0" fill="#FFFFFF" font-family="'NeoSansPro-Medium'" font-size="4">sed</tspan><tspan x="119.852" y="0" fill="#FFFFFF" font-family="'NeoSansPro-Medium'" font-size="4" letter-spacing="1"> </tspan><tspan x="122.132" y="0" fill="#FFFFFF" font-family="'NeoSansPro-Medium'" font-size="4">do</tspan><tspan x="126.735" y="0" fill="#FFFFFF" font-family="'NeoSansPro-Medium'" font-size="4" letter-spacing="1"> </tspan><tspan x="129.016" y="0" fill="#FFFFFF" font-family="'NeoSansPro-Medium'" font-size="4">eiusmod</tspan><tspan x="144.703" y="0" fill="#FFFFFF" font-family="'NeoSansPro-Medium'" font-size="4" letter-spacing="1"> </tspan><tspan x="146.983" y="0" fill="#FFFFFF" font-family="'NeoSansPro-Medium'" font-size="4">tempor </tspan></text>
	
		<rect x="69.606" y="56.994" fill="none" stroke="#FFFFFF" stroke-width="2" stroke-linejoin="round" stroke-miterlimit="50" width="197.208" height="151.596"/>
	<text transform="matrix(1 0 0 1 120.7588 28.3462)" fill="#FFFFFF" font-family="'Roboto-Medium'" font-size="16.166">WEB DESIGN</text>
	
		<rect x="61.851" y="200.834" fill="none" stroke="#FFFFFF" stroke-width="2" stroke-linejoin="round" stroke-miterlimit="50" width="15.51" height="15.51"/>
	
		<rect x="61.851" y="50.239" fill="none" stroke="#FFFFFF" stroke-width="2" stroke-linejoin="round" stroke-miterlimit="50" width="15.51" height="15.51"/>
	
		<rect x="61.851" y="110.765" fill="none" stroke="#FFFFFF" stroke-width="2" stroke-linejoin="round" stroke-miterlimit="50" width="15.51" height="15.51"/>
	
		<rect x="259.061" y="200.834" fill="none" stroke="#FFFFFF" stroke-width="2" stroke-linejoin="round" stroke-miterlimit="50" width="15.51" height="15.51"/>
	
		<rect x="259.061" y="49.239" fill="none" stroke="#FFFFFF" stroke-width="2" stroke-linejoin="round" stroke-miterlimit="50" width="15.51" height="15.51"/>
	
		<rect x="259.061" y="144.637" fill="none" stroke="#FFFFFF" stroke-width="2" stroke-linejoin="round" stroke-miterlimit="50" width="15.51" height="15.51"/>
	<polyline fill="none" stroke="#FFFFFF" stroke-width="2" stroke-linejoin="round" stroke-miterlimit="50" points="301.179,134.715 
		301.179,179.133 266.397,179.133 	"/>
	<polyline fill="none" stroke="#FFFFFF" stroke-width="2" stroke-linejoin="round" stroke-miterlimit="50" points="34.369,137.301 
		34.369,92.376 70.538,92.376 	"/>
	<path fill="#FFFFFF" d="M321.943,132.918c0,1.545-1.252,2.797-2.797,2.797h-35.936c-1.545,0-2.797-1.252-2.797-2.797V87.881
		c0-1.545,1.252-2.797,2.797-2.797h35.936c1.545,0,2.797,1.252,2.797,2.797V132.918z"/>
	<path fill="#FFFFFF" d="M55.711,185.135c0,1.545-1.252,2.797-2.797,2.797H16.979c-1.544,0-2.797-1.252-2.797-2.797v-45.037
		c0-1.545,1.252-2.797,2.797-2.797h35.936c1.545,0,2.797,1.252,2.797,2.797V185.135z"/>
	<rect x="91.061" y="85.544" fill="#4E4E4E" width="153.881" height="97.461"/>
	<rect x="98.607" y="92.716" fill="#FFFFFF" width="138.788" height="69.28"/>
	<rect x="104.129" y="97.495" opacity="0.2" fill="#B1B1B1" width="127.744" height="59.722"/>
	<circle fill="#FF643A" cx="168.002" cy="127.355" r="19.191"/>
	<g>
		<path fill="#FFFFFF" d="M175.884,126.85l-13.127-7.58c-0.092-0.053-0.189-0.08-0.292-0.08c-0.283,0-0.589,0.225-0.589,0.588
			v15.162c0,0.492,0.532,0.711,0.88,0.508l13.127-7.582c0.267-0.15,0.294-0.404,0.294-0.506
			C176.178,127.256,176.15,127.002,175.884,126.85z"/>
		<path fill="#FFFFFF" d="M175.884,127.865l-13.127,7.582c-0.349,0.203-0.88-0.016-0.88-0.508v-15.162
			c0-0.363,0.306-0.588,0.589-0.588c0.102,0,0.199,0.027,0.292,0.08l13.127,7.58c0.267,0.152,0.294,0.406,0.294,0.51
			C176.178,127.461,176.15,127.715,175.884,127.865z"/>
	</g>
	<g id="Play_8_">
		<g>
			<path fill="#FFFFFF" d="M108.674,171.947l-6.282-3.141c-0.008-0.004-0.016-0.004-0.023-0.004c-0.049-0.023-0.1-0.031-0.151-0.041
				c-0.053-0.012-0.102-0.029-0.152-0.033c-0.008,0-0.016-0.004-0.025-0.004c-0.041,0-0.075,0.018-0.113,0.023
				c-0.056,0.008-0.109,0.014-0.162,0.031c-0.049,0.02-0.091,0.051-0.134,0.078c-0.042,0.025-0.083,0.045-0.12,0.078
				c-0.043,0.039-0.073,0.09-0.105,0.135c-0.022,0.031-0.052,0.055-0.068,0.088c-0.005,0.008-0.004,0.018-0.007,0.025
				c-0.022,0.045-0.029,0.098-0.041,0.148c-0.013,0.053-0.03,0.102-0.031,0.154c0,0.008-0.004,0.016-0.004,0.023v6.277
				c0,0.008,0.004,0.014,0.004,0.023c0.001,0.053,0.019,0.102,0.031,0.154c0.012,0.051,0.02,0.102,0.041,0.148
				c0.003,0.008,0.001,0.016,0.007,0.023c0.036,0.074,0.085,0.139,0.139,0.195c0.012,0.012,0.026,0.02,0.039,0.031
				c0.055,0.049,0.118,0.092,0.183,0.123c0.022,0.012,0.045,0.02,0.07,0.031c0.085,0.031,0.177,0.055,0.269,0.055
				c0.001,0,0.001,0,0.001,0c0.001,0,0.001,0,0.001,0h0.005c0.116-0.004,0.223-0.031,0.323-0.078
				c0.007-0.006,0.015-0.004,0.021-0.006l6.282-3.139c0.266-0.133,0.433-0.404,0.433-0.701S108.939,172.08,108.674,171.947z
				 M102.826,174.516v-3.736l3.739,1.869L102.826,174.516z"/>
		</g>
	</g>
	<g id="Pause_8_">
		<g>
			<path fill="#FFFFFF" d="M117.819,168.725c-0.433,0-0.784,0.352-0.784,0.785v6.277c0,0.432,0.351,0.785,0.784,0.785
				c0.434,0,0.785-0.354,0.785-0.785v-6.277C118.604,169.076,118.253,168.725,117.819,168.725z M122.527,168.725
				c-0.434,0-0.785,0.352-0.785,0.785v6.277c0,0.432,0.351,0.785,0.785,0.785c0.434,0,0.785-0.354,0.785-0.785v-6.277
				C123.312,169.076,122.961,168.725,122.527,168.725z"/>
		</g>
	</g>
	<g>
		<line fill="#FFFFFF" x1="131.08" y1="172.648" x2="216.977" y2="172.648"/>
		<path fill="#FFFFFF" d="M216.977,174.148H131.08c-0.829,0-1.5-0.672-1.5-1.5s0.671-1.5,1.5-1.5h85.897c0.828,0,1.5,0.672,1.5,1.5
			S217.805,174.148,216.977,174.148z"/>
	</g>
	<path id="XMLID_703_" fill="#FFFFFF" d="M229.126,168.514c-0.186-0.057-0.392-0.021-0.534,0.088l-2.42,1.881h-1.2
		c-0.272,0-0.491,0.166-0.491,0.375v3.236c0,0.209,0.219,0.377,0.491,0.377h1.2l2.427,1.881c0.095,0.072,0.222,0.113,0.352,0.113
		c0.063,0,0.115-0.01,0.176-0.027c0.185-0.061,0.294-0.197,0.294-0.352v-7.221C229.42,168.713,229.311,168.572,229.126,168.514z
		 M228.432,175.162l-1.715-1.338c-0.093-0.07-0.207-0.113-0.339-0.113h-0.91v-2.471h0.91c0.132,0,0.246-0.041,0.339-0.113
		l1.715-1.34V175.162z M231.032,174.084c-0.099,0.086-0.233,0.127-0.37,0.127c-0.116,0-0.234-0.033-0.328-0.096
		c-0.203-0.141-0.222-0.381-0.041-0.537c1.23-1.062,0.129-2.092,0-2.205c-0.18-0.156-0.161-0.396,0.043-0.535
		c0.204-0.141,0.515-0.125,0.696,0.029C231.676,171.424,232.506,172.814,231.032,174.084z M232.521,175.1
		c-0.099,0.086-0.233,0.127-0.37,0.127c-0.117,0-0.234-0.031-0.328-0.096c-0.203-0.139-0.221-0.379-0.041-0.535
		c2.417-2.084,0.1-4.15,0-4.24c-0.18-0.156-0.161-0.395,0.043-0.535c0.203-0.139,0.514-0.127,0.696,0.029
		C232.551,169.875,235.527,172.506,232.521,175.1z"/>
	<polygon opacity="0.1" fill="#1D1D1B" points="200.312,76.08 200.312,90.481 200.312,142.719 267.415,142.719 267.415,90.481 
		267.415,76.08 	"/>
	<g>
		<rect x="206.308" y="84.31" fill="#FFFFFF" width="67.103" height="52.239"/>
		<rect x="214.854" y="93.369" fill="#DCDBDD" width="48.646" height="9.105"/>
		<rect x="214.854" y="106.475" fill="#DCDBDD" width="48.646" height="9.102"/>
		<rect x="223.369" y="119.951" fill="#4E4E4E" width="31.613" height="7.309"/>
		<rect x="206.308" y="69.909" fill="#4E4E4E" width="67.103" height="14.401"/>
		<ellipse fill="#FFFFFF" cx="215.554" cy="76.985" rx="2.304" ry="2.291"/>
		<ellipse fill="#FFFFFF" cx="225.52" cy="76.985" rx="2.303" ry="2.291"/>
		<ellipse fill="#FFFFFF" cx="235.487" cy="76.985" rx="2.304" ry="2.291"/>
	</g>
	
		<circle fill="none" stroke="#4E4E4E" stroke-width="2" stroke-linecap="round" stroke-miterlimit="10" cx="293.183" cy="62.83" r="2.681"/>
	
		<circle fill="none" stroke="#4E4E4E" stroke-width="2" stroke-linecap="round" stroke-miterlimit="10" cx="313.169" cy="56.331" r="4.636"/>
	
		<circle fill="none" stroke="#4E4E4E" stroke-width="2" stroke-linecap="round" stroke-miterlimit="10" cx="301.179" cy="200.877" r="4.636"/>
	
		<circle fill="none" stroke="#4E4E4E" stroke-width="2" stroke-linecap="round" stroke-miterlimit="10" cx="293.111" cy="30.322" r="4.635"/>
	
		<circle fill="none" stroke="#4E4E4E" stroke-width="2" stroke-linecap="round" stroke-miterlimit="10" cx="32.403" cy="25.774" r="4.635"/>
	
		<circle fill="none" stroke="#4E4E4E" stroke-width="2" stroke-linecap="round" stroke-miterlimit="10" cx="42.083" cy="210.193" r="4.635"/>
	
		<circle fill="none" stroke="#4E4E4E" stroke-width="2" stroke-linecap="round" stroke-miterlimit="10" cx="135.757" cy="195.57" r="4.635"/>
	
		<circle fill="none" stroke="#4E4E4E" stroke-width="2" stroke-linecap="round" stroke-miterlimit="10" cx="179.937" cy="72.85" r="2.681"/>
	
		<circle fill="none" stroke="#4E4E4E" stroke-width="2" stroke-linecap="round" stroke-miterlimit="10" cx="273.649" cy="23.818" r="2.681"/>
	
		<circle fill="none" stroke="#4E4E4E" stroke-width="2" stroke-linecap="round" stroke-miterlimit="10" cx="117.095" cy="198.251" r="2.681"/>
	
		<circle fill="none" stroke="#4E4E4E" stroke-width="2" stroke-linecap="round" stroke-miterlimit="10" cx="48.147" cy="37.637" r="2.681"/>
	
		<circle fill="none" stroke="#4E4E4E" stroke-width="2" stroke-linecap="round" stroke-miterlimit="10" cx="33.829" cy="67.351" r="4.635"/>
	<polygon fill="#FFFFFF" points="208.917,193.115 184.605,193.115 184.605,218.561 208.917,218.561 279.179,218.561 
		279.179,193.115 	"/>
	<g>
		<path fill="#4E4E4E" d="M208.917,205.836c0,9.148-7.415,16.566-16.567,16.566c-9.145,0-16.568-7.418-16.568-16.566
			c0-9.15,7.424-16.568,16.568-16.568C201.502,189.268,208.917,196.686,208.917,205.836z"/>
	</g>
	<circle fill="#FF643A" cx="190.692" cy="172.477" r="5.001"/>
	<path fill="#4E4E4E" d="M45.151,158.334c-0.376,0.377-0.753,0.564-1.128,0.564h-0.378l-2.822-0.754
		c-0.564-0.186-0.939-0.562-1.127-1.127l-0.752-2.824c-0.188-0.562,0-1.127,0.376-1.502l3.386-3.389
		c-2.634-0.752-5.644,0.189-7.526,2.07c-1.692,1.693-2.634,4.141-2.257,6.586c0,0.375-0.187,0.564-0.376,0.752l-10.347,10.158
		c-1.694,1.693-2.069,4.139-0.753,6.021c0.941,1.316,2.259,2.068,3.952,2.068c1.318,0,2.446-0.564,3.198-1.314l10.348-10.35
		l0.188-0.188c0.188-0.188,0.564-0.377,0.752-0.377c2.446,0.377,4.892-0.564,6.586-2.256c2.069-2.072,2.82-4.893,2.069-7.527
		L45.151,158.334z"/>
	<rect x="214.592" y="199.25" fill="#DCDBDD" width="25.268" height="5.631"/>
	<rect x="214.592" y="207.377" fill="#DCDBDD" width="56.092" height="5.631"/>
	<rect x="245.416" y="199.25" fill="#DCDBDD" width="25.268" height="5.631"/>
	
		<rect x="135.757" y="57.34" fill="none" stroke="#FFFFFF" stroke-width="2" stroke-linejoin="round" stroke-miterlimit="50" width="15.51" height="15.51"/>
	<polygon fill="#FFFFFF" points="85.614,49.622 61.302,49.622 61.302,75.066 85.614,75.066 155.876,75.066 155.876,49.622 	"/>
	<g>
		<path fill="#4E4E4E" d="M85.614,62.342c0,9.148-7.415,16.566-16.568,16.566c-9.144,0-16.567-7.418-16.567-16.566
			c0-9.15,7.423-16.568,16.567-16.568C78.2,45.774,85.614,53.192,85.614,62.342z"/>
	</g>
	<rect x="91.289" y="55.756" fill="#DCDBDD" width="25.268" height="5.631"/>
	<rect x="91.289" y="63.883" fill="#DCDBDD" width="56.093" height="5.631"/>
	<rect x="122.113" y="55.756" fill="#DCDBDD" width="25.268" height="5.631"/>
	<text transform="matrix(1 0 0 1 59.3696 70.9087)" fill="#FFFFFF" font-family="'Myriad-Bold'" font-size="25.1708">@</text>
	<text transform="matrix(1 0 0 1 182.6904 212.877)" fill="#FFFFFF" font-family="'Myriad-Bold'" font-size="21.3194">%</text>
	<circle fill="#4E4E4E" cx="301.103" cy="107.161" r="8.603"/>
	<path fill="#4E4E4E" d="M313.385,123.494c-0.51-6.342-5.809-11.333-12.283-11.333c-6.474,0-11.771,4.991-12.283,11.333H313.385z"/>
</g>
<g id="text">
</g>
<g id="Layer_1">
</g>
<g id="Layer_3">
</g>
<g id="Layer_4">
</g>
<g id="Layer_5">
</g>
<g id="Layer_6">
</g>
<g id="Layer_7">
</g>
</svg>
